<svg width="600" height="118" viewBox="0 0 600 118" fill="none" xmlns="http://www.w3.org/2000/svg">
<path fill-rule="evenodd" clip-rule="evenodd" d="M66.5478 7.59283C66.5478 11.7863 63.1485 15.1857 58.955 15.1857C54.7615 15.1857 51.3622 11.7863 51.3622 7.59283C51.3622 3.39936 54.7615 0 58.955 0C63.1485 0 66.5478 3.39936 66.5478 7.59283ZM80.68 112.869V102.669C83.0627 101.577 85.3402 100.201 87.4797 98.6905C106.47 85.2623 113.609 60.255 104.407 38.7075C99.0318 26.1281 88.1839 15.9781 75.2492 11.4954L77.5566 2.44768C83.0136 4.25782 88.2267 6.89093 92.9101 10.2117C115.679 26.3653 124.062 56.513 112.635 82.2079C106.473 96.0641 94.8191 107.346 80.68 112.869ZM54.0212 58.2382V107.772H63.2367V58.2382H101.251V60.9536C101.251 64.0242 96.7251 67.6183 93.7629 67.6183H71.4648V115.835C62.7332 117.534 53.8105 117.589 45.1347 115.506V67.6183H22.8365C19.6275 67.6183 15.1843 63.9158 15.1843 60.6245V58.2382H54.0212ZM0.944661 68.774C4.43657 88.1233 17.6608 104.754 35.7529 112.38L35.7563 112.377V102.009C12.8686 90.223 2.99496 61.895 13.5105 38.2113C19.0003 25.8428 29.7463 15.7157 42.6611 11.4927L40.2058 2.51767C39.9789 2.33656 36.48 3.78481 35.9241 4.01833C10.6273 14.7216 -3.96265 41.5718 0.944661 68.774ZM82.6537 31.9091H63.4822L63.2354 32.1559V40.4666H98.1226C97.7275 44.8372 95.7462 48.7901 91.0857 49.639C69.1959 50.0012 47.2102 49.9452 25.3167 49.6688C22.4335 49.0532 19.9881 47.0785 19.0567 44.2447C18.8703 43.6772 18.7558 43.0755 18.6414 42.4727C18.5113 41.7894 18.3813 41.1048 18.1451 40.4666H54.0198V31.9091H35.2597C35.6382 27.4858 37.7644 23.5265 42.4608 22.7364L74.679 22.6869C77.8913 22.8846 80.7284 25.0995 81.7421 28.131C81.9402 28.7234 82.0572 29.3384 82.1743 29.9527C82.3007 30.6145 82.4268 31.2759 82.6537 31.9091ZM36.083 90.1623C28.997 89.1058 24.6261 82.4215 24.2542 75.6251L24.4814 75.3518H35.8362L36.083 75.5986V90.1623ZM80.5168 90.1623C87.5666 88.9774 92.0493 82.2371 92.2009 75.3518H80.5168V90.1623Z" fill="#B1B97A"/>
<path d="M167.607 56.0324V52.4204H176.288C178.082 52.4204 179.694 52.1133 181.131 51.4986C182.564 50.8836 183.691 49.9873 184.511 48.8088C185.33 47.6305 185.741 46.1962 185.741 44.5055C185.741 41.944 184.846 39.972 183.051 38.5888C181.257 37.1541 179.004 36.437 176.288 36.437H168.99V78.7011H177.057C179.363 78.7011 181.386 78.2914 183.128 77.4718C184.922 76.6521 186.305 75.4736 187.277 73.9367C188.302 72.3999 188.813 70.5301 188.813 68.3272C188.813 66.6879 188.534 65.2277 187.97 63.947C187.407 62.6663 186.587 61.5905 185.509 60.7198C184.484 59.8487 183.257 59.2085 181.821 58.7985C180.388 58.3374 178.799 58.1069 177.057 58.1069H167.607V54.4953H177.057C179.671 54.4953 182.079 54.7772 184.282 55.3408C186.484 55.904 188.405 56.7751 190.044 57.9533C191.735 59.0805 193.042 60.5403 193.964 62.3336C194.887 64.1264 195.348 66.2524 195.348 68.7113C195.348 72.2464 194.525 75.1919 192.886 77.5484C191.298 79.8538 189.122 81.5956 186.355 82.7738C183.642 83.901 180.54 84.4645 177.057 84.4645H162.457V30.6739H176.288C179.515 30.6739 182.308 31.1605 184.663 32.1337C187.072 33.1073 188.942 34.5927 190.276 36.5909C191.606 38.5374 192.273 41.0478 192.273 44.1214C192.273 46.6318 191.606 48.7832 190.276 50.5764C188.942 52.3693 187.072 53.727 184.663 54.6492C182.308 55.5713 179.515 56.0324 176.288 56.0324H167.607ZM220.292 30.6739H226.824V66.7904C226.824 70.479 227.822 73.4501 229.819 75.7041C231.819 77.9584 234.738 79.0855 238.579 79.0855C242.421 79.0855 245.343 77.9584 247.34 75.7041C249.337 73.4501 250.338 70.479 250.338 66.7904V30.6739H256.87V66.7904C256.87 69.4544 256.432 71.9133 255.563 74.1673C254.744 76.4216 253.513 78.3681 251.874 80.0074C250.285 81.647 248.365 82.9277 246.109 83.8496C243.857 84.7717 241.346 85.2328 238.579 85.2328C235.813 85.2328 233.302 84.7717 231.05 83.8496C228.794 82.9277 226.847 81.647 225.208 80.0074C223.623 78.3681 222.392 76.4216 221.52 74.1673C220.7 71.9133 220.292 69.4544 220.292 66.7904V30.6739ZM284.146 30.6739H290.678V84.4645H284.146V30.6739ZM300.284 84.4645H287.759V77.9328H300.284C303.306 77.9328 306.072 77.4718 308.583 76.5496C311.094 75.5761 313.244 74.2187 315.038 72.4769C316.83 70.6837 318.213 68.5322 319.188 66.0218C320.16 63.5118 320.648 60.6942 320.648 57.5692C320.648 54.4442 320.16 51.6266 319.188 49.1163C318.213 46.6062 316.83 44.48 315.038 42.7381C313.244 40.9453 311.094 39.5876 308.583 38.6654C306.072 37.6922 303.306 37.2056 300.284 37.2056H287.759V30.6739H300.284C305.508 30.6739 310.146 31.8007 314.193 34.055C318.239 36.309 321.417 39.4595 323.723 43.5067C326.028 47.5025 327.179 52.1902 327.179 57.5692C327.179 62.9482 326.028 67.6611 323.723 71.7083C321.417 75.7041 318.239 78.8291 314.193 81.0834C310.146 83.3374 305.508 84.4645 300.284 84.4645ZM355.587 57.5692C355.587 61.6161 356.459 65.2277 358.2 68.4042C359.992 71.5803 362.426 74.0907 365.501 75.9346C368.573 77.7789 372.056 78.7011 375.95 78.7011C379.894 78.7011 383.38 77.7789 386.402 75.9346C389.474 74.0907 391.882 71.5803 393.624 68.4042C395.418 65.2277 396.314 61.6161 396.314 57.5692C396.314 53.522 395.418 49.9104 393.624 46.7342C391.882 43.5578 389.474 41.0478 386.402 39.2034C383.38 37.3591 379.894 36.437 375.95 36.437C372.056 36.437 368.573 37.3591 365.501 39.2034C362.426 41.0478 359.992 43.5578 358.2 46.7342C356.459 49.9104 355.587 53.522 355.587 57.5692ZM348.67 57.5692C348.67 53.6245 349.337 49.9873 350.671 46.6573C352.054 43.2762 353.974 40.3561 356.432 37.8972C358.89 35.3868 361.786 33.44 365.117 32.0571C368.447 30.6225 372.056 29.9053 375.95 29.9053C379.894 29.9053 383.507 30.6225 386.787 32.0571C390.114 33.44 393.01 35.3868 395.468 37.8972C397.929 40.3561 399.823 43.2762 401.157 46.6573C402.54 49.9873 403.23 53.6245 403.23 57.5692C403.23 61.4625 402.54 65.0997 401.157 68.4808C399.823 71.8619 397.929 74.8078 395.468 77.3179C393.01 79.7768 390.114 81.7236 386.787 83.1579C383.507 84.5412 379.894 85.2328 375.95 85.2328C372.056 85.2328 368.447 84.5412 365.117 83.1579C361.786 81.7236 358.89 79.7768 356.432 77.3179C353.974 74.8078 352.054 71.8619 350.671 68.4808C349.337 65.0997 348.67 61.4625 348.67 57.5692ZM427.823 30.6739H434.354V84.4645H427.823V30.6739ZM455.488 30.6739H463.555L440.272 55.8785L464.709 84.4645H456.639L432.357 56.0324L455.488 30.6739ZM491.79 68.3272L494.095 62.1796H517.919L520.224 68.3272H491.79ZM505.854 42.8151L496.785 64.1775L496.172 65.5608L488.177 84.4645H480.88L505.854 27.9844L530.829 84.4645H523.528L515.689 66.0218L515.076 64.485L505.854 42.8151ZM593.465 30.6739H600V87.154L559.273 44.4289V84.4645H552.738V27.9844L593.465 70.7095V30.6739Z" fill="white"/>
</svg>
