<svg width="24" height="24" viewBox="0 0 24 24" fill="none" xmlns="http://www.w3.org/2000/svg">
<path d="M14.5945 15.8163H15.6314V16.8532H14.5945V15.8163Z" fill="#00DAA3"/>
<path d="M7.33172 14.7795H8.36862V15.8164H7.33172V14.7795Z" fill="#00DAA3"/>
<path d="M15.6313 14.7795H16.6682V15.8164L15.6314 15.8163L15.6313 14.7795Z" fill="#00DAA3"/>
<path d="M7.33182 9.59038H6.29492V14.7793L7.33172 14.7795L7.33182 9.59038Z" fill="#00DAA3"/>
<path d="M7.33172 8.55415H8.36862V9.59104H7.33172V8.55415Z" fill="#00DAA3"/>
<path d="M15.6313 8.55415H16.6682V9.59104H15.6313V8.55415Z" fill="#00DAA3"/>
<path d="M8.36862 15.8164L9.40571 15.8163V16.8532H8.36881L8.36862 15.8164Z" fill="#00DAA3"/>
<path d="M14.5945 7.51735H15.6314L15.6313 8.55415L14.5945 8.55424V7.51735Z" fill="#00DAA3"/>
<path d="M11.4845 11.6698H8.36878V12.7059H12.5214V8.55401H11.4845L11.4845 11.6698Z" fill="#00DAA3"/>
<path d="M9.40571 16.8532L9.40561 19H14.5945L14.5945 16.8532H9.40571Z" fill="#00DAA3"/>
<path d="M8.36881 7.51735H9.40571V8.55424L8.36862 8.55415L8.36881 7.51735Z" fill="#00DAA3"/>
<path d="M14.5945 7.51735L14.5944 5H9.40554L9.40571 7.51735H14.5945Z" fill="#00DAA3"/>
<path d="M16.6682 9.59104V14.7795L17.7052 14.7797V9.59088L16.6682 9.59104Z" fill="#00DAA3"/>
</svg>
