<svg width="24" height="24" viewBox="0 0 24 24" fill="none" xmlns="http://www.w3.org/2000/svg">
<path fill-rule="evenodd" clip-rule="evenodd" d="M11.3944 4.19922H12.6056V5.39842H13.8048V6.59762H14.992V5.39842H16.2032V6.59762H17.4024V7.79682H18.6016V8.99602H19.8008V10.1952H21V11.4064H19.8008V12.6056H18.6016V13.8048H17.4024V15.004H16.2032V16.2032H15.004V17.4024H13.8048V18.6016H12.6056V19.8008H11.3944V18.6016H10.1952V17.4024H9.00799V18.6016H7.7968V17.4024H6.5976V16.2032H5.3984V15.004H4.1992V13.8048H3V12.5936H4.1992V11.3944H5.3984V10.1952H6.5976V8.99602H7.7968V7.79682H8.99601V6.59762H10.1952V5.39842H11.3944V4.19922ZM8.99601 16.2032V17.3904H7.80879V16.2032H8.99601ZM6.60959 16.1912H7.7968V15.004H6.60959V16.1912ZM6.5976 14.992H5.41039V13.7928H4.21119V12.6056H5.41039V11.4064H6.60959V10.2072H7.80879V9.00801H9.00799V7.80881H10.2072V6.60961H11.4064V5.41041H12.5936V6.60961H13.7928V7.79682H12.5936V8.99602H11.3944V10.1952H10.1952V11.3944H8.99601V12.5936H7.7968V13.7928H6.5976V14.992ZM12.6056 11.4064H14.992V13.7928H12.6056V11.4064Z" fill="#00DAA3"/>
</svg>
