<svg width="24" height="24" viewBox="0 0 24 24" fill="none" xmlns="http://www.w3.org/2000/svg">
<path d="M18 4H17V7H18V8H19V11H20V8H19V7H18V4Z" fill="#00DAA3"/>
<path fill-rule="evenodd" clip-rule="evenodd" d="M7 13V14H5V15H4V16H5V17H7V18H13V17H14V18H17V17H18V18H20V13H14V14H13V13H10V14H9V13H7ZM11 15H10V14H11V15ZM12 16H11V15H12V16ZM12 16V17H13V16H12ZM15 15H14V14H15V15ZM16 16H15V15H16V16ZM16 16V17H17V16H16Z" fill="#00DAA3"/>
<path d="M17 11H16V8H17V11Z" fill="#00DAA3"/>
<path d="M15 7H16V8H15V7Z" fill="#00DAA3"/>
<path d="M15 7H14V4H15V7Z" fill="#00DAA3"/>
</svg>
