<svg width="24" height="24" viewBox="0 0 24 24" fill="none" xmlns="http://www.w3.org/2000/svg">
<g clip-path="url(#clip0_542_76)">
<path d="M23.988 0H0.0119629V24H23.988V0Z" fill="black"/>
<path d="M11.2967 11.9551V19.1618H12.6361V11.9551H18.1613V12.3501C18.1613 12.7969 17.5035 13.3198 17.073 13.3198H13.832V20.3349C12.5629 20.582 11.266 20.5902 10.005 20.2871V13.3198H6.76408C6.29767 13.3198 5.65186 12.7811 5.65186 12.3022V11.9551H11.2967Z" fill="#B1B97A"/>
<path d="M15.1716 19.9047V18.4203C15.518 18.2613 15.849 18.0612 16.16 17.8414C18.9202 15.8877 19.9578 12.2494 18.6202 9.11433C17.839 7.28419 16.2623 5.8074 14.3823 5.15522L14.7177 3.83887C15.5108 4.10222 16.2685 4.48531 16.9493 4.96845C20.2587 7.31865 21.477 11.7049 19.8162 15.4433C18.9206 17.4593 17.2267 19.1008 15.1716 19.9043V19.9047Z" fill="#B1B97A"/>
<path d="M8.64187 19.8329C6.01225 18.7235 4.09016 16.3038 3.58261 13.4887C2.86935 9.531 4.98998 5.62454 8.66673 4.0673C8.74758 4.03332 9.25609 3.82262 9.2891 3.84895L9.64596 5.15479C7.76883 5.76914 6.20696 7.24257 5.40904 9.04207C3.88064 12.4879 5.31575 16.6093 8.64235 18.3241V19.8325L8.64187 19.8329Z" fill="#B1B97A"/>
<path d="M15.4586 8.12495H12.6721L12.6362 8.16085V9.36995H17.707C17.6495 10.0059 17.3616 10.581 16.6842 10.7045C13.5025 10.7572 10.307 10.749 7.1249 10.7088C6.70585 10.6193 6.35043 10.332 6.21503 9.91967C6.15716 9.74346 6.14711 9.54474 6.08252 9.36995H11.2968V8.12495H8.57006C8.62508 7.48136 8.93411 6.90532 9.61673 6.79038L14.2995 6.7832C14.7664 6.81193 15.1788 7.1342 15.3261 7.57523C15.3859 7.75432 15.395 7.9473 15.4586 8.12495Z" fill="#B1B97A"/>
<path d="M12.0137 5.69184C12.6233 5.69184 13.1174 5.19725 13.1174 4.58712C13.1174 3.97701 12.6233 3.48242 12.0137 3.48242C11.4043 3.48242 10.9102 3.97701 10.9102 4.58712C10.9102 5.19725 11.4043 5.69184 12.0137 5.69184Z" fill="#B1B97A"/>
<path d="M8.68946 16.6001C7.65955 16.4464 7.02426 15.4739 6.97021 14.4851L7.00321 14.4453H8.6536L8.68946 14.4812V16.6001Z" fill="#B1B97A"/>
<path d="M16.8459 14.4453C16.8239 15.447 16.1724 16.4277 15.1477 16.6001V14.4453H16.8459Z" fill="#B1B97A"/>
</g>
<defs>
<clipPath id="clip0_542_76">
<rect width="24" height="24" fill="white"/>
</clipPath>
</defs>
</svg>
