<svg width="1809" height="353" viewBox="0 0 1809 353" fill="none" xmlns="http://www.w3.org/2000/svg">
<path fill-rule="evenodd" clip-rule="evenodd" d="M200.621 22.89C200.621 35.532 190.373 45.78 177.731 45.78C165.089 45.78 154.841 35.532 154.841 22.89C154.841 10.248 165.089 0 177.731 0C190.373 0 200.621 10.248 200.621 22.89ZM243.225 340.265V309.516C250.408 306.222 257.274 302.075 263.724 297.521C320.974 257.039 342.495 181.65 314.753 116.691C298.55 78.768 265.847 48.169 226.853 34.655L233.809 7.379C250.26 12.836 265.976 20.774 280.095 30.785C348.736 79.483 374.008 170.369 339.558 247.831C320.984 289.603 285.85 323.616 243.225 340.265ZM162.857 175.57V324.898H190.639V175.57H305.239V183.756C305.239 193.013 291.596 203.848 282.666 203.848H215.444V349.207C189.121 354.327 162.222 354.495 136.067 348.215V203.848H68.8449C59.1709 203.848 45.7759 192.686 45.7759 182.764V175.57H162.857ZM2.84786 207.332C13.3749 265.664 53.2419 315.8 107.784 338.789L107.794 338.78V307.525C38.7949 271.994 9.02888 186.594 40.7299 115.195C57.2799 77.908 89.6759 47.378 128.61 34.647L121.208 7.59C120.524 7.044 109.976 11.41 108.3 12.114C32.0379 44.381 -11.9461 125.326 2.84786 207.332ZM249.175 96.196H191.379L190.635 96.94V121.994H295.809C294.618 135.17 288.645 147.087 274.595 149.646C208.604 150.738 142.324 150.569 76.3219 149.736C67.6299 147.88 60.2579 141.927 57.4499 133.384C56.8879 131.673 56.5429 129.859 56.1979 128.042C55.8059 125.982 55.4139 123.918 54.7019 121.994H162.853V96.196H106.297C107.438 82.861 113.848 70.925 128.006 68.543L225.134 68.394C234.818 68.99 243.371 75.667 246.427 84.806C247.024 86.592 247.377 88.446 247.73 90.298C248.111 92.293 248.491 94.287 249.175 96.196ZM108.779 271.811C87.4169 268.626 74.2399 248.475 73.1189 227.986L73.8038 227.162H108.035L108.779 227.906V271.811ZM242.733 271.811C263.986 268.239 277.5 247.919 277.957 227.162H242.733V271.811Z" fill="#B1B97A"/>
<path d="M505.282 168.919V158.03H531.452C536.862 158.03 541.722 157.104 546.052 155.251C550.372 153.397 553.772 150.695 556.242 147.142C558.712 143.59 559.952 139.266 559.952 134.169C559.952 126.447 557.252 120.502 551.842 116.332C546.432 112.007 539.642 109.845 531.452 109.845H509.452V237.258H533.772C540.722 237.258 546.822 236.023 552.072 233.552C557.482 231.081 561.652 227.528 564.582 222.895C567.672 218.262 569.212 212.625 569.212 205.984C569.212 201.042 568.372 196.64 566.672 192.779C564.972 188.918 562.502 185.675 559.252 183.05C556.162 180.424 552.462 178.494 548.132 177.258C543.812 175.868 539.022 175.173 533.772 175.173H505.282V164.285H533.772C541.652 164.285 548.912 165.135 555.552 166.834C562.192 168.532 567.982 171.158 572.922 174.71C578.022 178.108 581.962 182.509 584.742 187.915C587.522 193.32 588.912 199.729 588.912 207.142C588.912 217.799 586.432 226.679 581.492 233.783C576.702 240.733 570.142 245.984 561.802 249.536C553.622 252.934 544.272 254.633 533.772 254.633H489.757V92.4713H531.452C541.182 92.4713 549.602 93.9383 556.702 96.8723C563.962 99.8073 569.602 104.285 573.622 110.309C577.632 116.177 579.642 123.745 579.642 133.011C579.642 140.579 577.632 147.065 573.622 152.471C569.602 157.876 563.962 161.969 556.702 164.749C549.602 167.529 541.182 168.919 531.452 168.919H505.282ZM664.112 92.4713H683.802V201.351C683.802 212.471 686.812 221.428 692.832 228.223C698.862 235.019 707.662 238.417 719.242 238.417C730.822 238.417 739.632 235.019 745.652 228.223C751.672 221.428 754.692 212.471 754.692 201.351V92.4713H774.382V201.351C774.382 209.382 773.062 216.795 770.442 223.59C767.972 230.386 764.262 236.254 759.322 241.196C754.532 246.139 748.742 250 741.942 252.779C735.152 255.559 727.582 256.949 719.242 256.949C710.902 256.949 703.332 255.559 696.542 252.779C689.742 250 683.872 246.139 678.932 241.196C674.152 236.254 670.442 230.386 667.812 223.59C665.342 216.795 664.112 209.382 664.112 201.351V92.4713ZM856.612 92.4713H876.302V254.633H856.612V92.4713ZM905.262 254.633H867.502V234.942H905.262C914.372 234.942 922.712 233.552 930.282 230.772C937.852 227.837 944.332 223.745 949.742 218.494C955.142 213.088 959.312 206.602 962.252 199.034C965.182 191.467 966.652 182.973 966.652 173.552C966.652 164.131 965.182 155.637 962.252 148.069C959.312 140.502 955.142 134.092 949.742 128.841C944.332 123.436 937.852 119.343 930.282 116.563C922.712 113.629 914.372 112.162 905.262 112.162H867.502V92.4713H905.262C921.012 92.4713 934.992 95.8683 947.192 102.664C959.392 109.459 968.972 118.957 975.922 131.158C982.872 143.204 986.342 157.336 986.342 173.552C986.342 189.768 982.872 203.976 975.922 216.177C968.972 228.223 959.392 237.644 947.192 244.44C934.992 251.235 921.012 254.633 905.262 254.633ZM1071.98 173.552C1071.98 185.752 1074.61 196.64 1079.86 206.216C1085.26 215.791 1092.6 223.359 1101.87 228.918C1111.13 234.478 1121.63 237.258 1133.37 237.258C1145.26 237.258 1155.77 234.478 1164.88 228.918C1174.14 223.359 1181.4 215.791 1186.65 206.216C1192.06 196.64 1194.76 185.752 1194.76 173.552C1194.76 161.351 1192.06 150.463 1186.65 140.888C1181.4 131.312 1174.14 123.745 1164.88 118.185C1155.77 112.625 1145.26 109.845 1133.37 109.845C1121.63 109.845 1111.13 112.625 1101.87 118.185C1092.6 123.745 1085.26 131.312 1079.86 140.888C1074.61 150.463 1071.98 161.351 1071.98 173.552ZM1051.13 173.552C1051.13 161.66 1053.14 150.695 1057.16 140.656C1061.33 130.463 1067.12 121.66 1074.53 114.247C1081.94 106.679 1090.67 100.81 1100.71 96.6413C1110.75 92.3163 1121.63 90.1543 1133.37 90.1543C1145.26 90.1543 1156.15 92.3163 1166.04 96.6413C1176.07 100.81 1184.8 106.679 1192.21 114.247C1199.63 121.66 1205.34 130.463 1209.36 140.656C1213.53 150.695 1215.61 161.66 1215.61 173.552C1215.61 185.289 1213.53 196.254 1209.36 206.447C1205.34 216.64 1199.63 225.521 1192.21 233.088C1184.8 240.501 1176.07 246.37 1166.04 250.694C1156.15 254.864 1145.26 256.949 1133.37 256.949C1121.63 256.949 1110.75 254.864 1100.71 250.694C1090.67 246.37 1081.94 240.501 1074.53 233.088C1067.12 225.521 1061.33 216.64 1057.16 206.447C1053.14 196.254 1051.13 185.289 1051.13 173.552ZM1289.75 92.4713H1309.44V254.633H1289.75V92.4713ZM1373.15 92.4713H1397.47L1327.28 168.455L1400.95 254.633H1376.62L1303.42 168.919L1373.15 92.4713ZM1482.59 205.984L1489.54 187.451H1561.36L1568.31 205.984H1482.59ZM1524.99 129.073L1497.65 193.474L1495.8 197.644L1471.7 254.633H1449.7L1524.99 84.3633L1600.28 254.633H1578.27L1554.64 199.034L1552.79 194.401L1524.99 129.073ZM1789.11 92.4713H1808.81V262.741L1686.03 133.938V254.633H1666.33V84.3633L1789.11 213.166V92.4713Z" fill="white"/>
</svg>
